# xmcd
#
# Track frame offsets:
#	150
#	13332
#	27682
#	42910
#	56152
#	69345
#	84322
#	97702
#	110237
#	122925
#	136795
#	150945
#	163635
#	176895
#	189315
#	201417
#	215592
#	231075
#
# Disc length: 3270 seconds
# Revision: 5
# Processed by: cddbd v1.5.2PL0 Copyright (c) Steve Scherf et al.
# Submitted via: dBpowerAMP V12.0
#
DISCID=fc0cc412
DTITLE=Various Artist - The Bristol Sessions (2 of 2)
DYEAR=1991
DGENRE=Country
TTITLE0=Ernest Phipps and His Holiness Quartet - I Want To Go Where Jesus Is
TTITLE1=Irma Frost, Uncle Eck Dunford and Ernest V. Stoneman - Midnight On The Stormy Deep
TTITLE2=The Carter Family - The Wandering Boy
TTITLE3=Alfred G. Karnes - To The Work
TTITLE4=J. P. Nestor - Black-Eyed Susie
TTITLE5=Johnson Brothers - A Passing Policeman
TTITLE6=Ernest V. Stoneman, Kahle Brewer and Walter M. Mooney - Tell Mother I Will Meet Her
TTITLE7=The Carter Family - Single Girl, Married Girl
TTITLE8=El Watson - Pot Licker Blues
TTITLE9=Tenneva Ramblers - The Longest Train I Ever Saw
TTITLE10=Ernest V. Stoneman and His Dixie Mountaineers - The Ressurection
TTITLE11=The Carter Family - The Storms Are On The Ocean
TTITLE12=Blind Alfred Reed - The Wreck Of The Virginian
TTITLE13=Shelor Family - Billy Grimes, The Rover
TTITLE14=Tennessee Mountaineers - Standing On The Promises
TTITLE15=Irma Frost, Uncle Eck Dunford and Ernest V. Stoneman - The Mountaineer's Courtship
TTITLE16=The Carter Family - The Poor Orphan Child
TTITLE17=Alfred G. Karnes - I Am Bound For The Promised Land
EXTD=
EXTT0=
EXTT1=
EXTT2=
EXTT3=
EXTT4=
EXTT5=
EXTT6=
EXTT7=
EXTT8=
EXTT9=
EXTT10=
EXTT11=
EXTT12=
EXTT13=
EXTT14=
EXTT15=
EXTT16=
EXTT17=
PLAYORDER=
